<svg width="40" height="40" viewBox="0 0 40 40" fill="none" xmlns="http://www.w3.org/2000/svg">
<g clip-path="url(#clip0_353_1065)">
<path d="M0 19.9998C0 34.8713 8.68843 39.919 19.9962 39.919C31.3116 39.919 40 34.8713 40 19.9998C40 5.12817 31.3116 0.0805664 19.9962 0.0805664C8.68843 0.0805664 0 5.12817 0 19.9998ZM38.3167 19.9998C38.3167 34.4043 30.3152 39.4293 20.0038 39.4293C9.69239 39.4293 1.69089 34.4043 1.69089 19.9998C1.69089 5.59526 9.69239 0.570259 20.0038 0.570259C30.3152 0.570259 38.3167 5.59526 38.3167 19.9998Z" fill="#131313"/>
<path d="M33.1243 31.549H31.1617C31.0862 30.4943 30.9352 30.0649 30.6559 29.0403L29.2443 24.1434H22.428L20.9937 29.1156C20.7144 30.0724 20.488 30.5244 20.4125 31.549H19.8086C20.3143 30.5169 20.3898 30.0649 20.6616 29.1382L25.4398 12.564C25.538 12.1346 25.5153 11.886 25.3644 11.4565H27.1232L32.1581 29.0327C32.4374 30.0875 32.6337 30.5621 33.1168 31.5415L33.1243 31.549ZM29.1764 23.842L25.855 12.2928L22.511 23.842H29.1764Z" fill="#131313"/>
<path d="M21.5873 20.8134C21.5119 21.951 20.8702 22.3277 20.1758 22.3277C19.7757 22.3277 19.3831 22.162 18.9982 21.8757C18.5453 22.162 17.9791 22.3277 17.3224 22.3277C15.8353 22.3277 14.4766 21.6497 14.4766 20.1429C14.4766 19.0957 15.1635 18.478 15.9485 17.9883C15.5183 17.2048 15.2239 16.4439 15.2239 15.7884C15.2239 14.8693 15.8202 14.1084 17.0506 14.1084C18.1678 14.1084 18.6962 14.8166 18.6962 15.5473C18.6962 16.4514 18.1452 16.9486 17.0129 17.6191C16.8166 17.7397 16.6204 17.8451 16.4467 17.9581C16.8317 18.6437 17.3224 19.3443 17.7904 19.9922C18.2509 20.6251 18.6509 21.1826 19.0586 21.5894C19.9493 20.7682 20.0852 19.269 19.1944 18.0033L19.6926 17.6116C20.5985 19.1786 20.3192 20.8586 19.202 21.7325C19.5341 22.0264 19.8587 22.1996 20.1908 22.1996C20.7872 22.1996 21.142 21.6647 21.0212 20.5271L21.5873 20.7984V20.8134ZM18.8396 21.7627C17.8961 20.9792 16.6883 19.2765 16.0769 18.2067C15.4503 18.6738 15.005 19.2464 15.005 20.1354C15.005 21.4161 15.9334 22.2072 17.3299 22.2072C17.9414 22.2072 18.4471 22.0414 18.8396 21.7551V21.7627ZM16.326 17.7698C16.4996 17.6643 16.6808 17.5664 16.8544 17.4684C17.9942 16.7904 18.2358 16.2555 18.2358 15.5172C18.2358 14.8618 17.9187 14.2289 17.0431 14.2289C16.1674 14.2289 15.6692 14.8768 15.6692 15.7357C15.6692 16.3459 15.9334 17.0466 16.326 17.7698Z" fill="#131313"/>
<path d="M21.5878 20.8133C21.5802 22.3728 19.9648 22.7645 19.0137 21.9057C17.7984 22.6364 16.032 22.5385 14.9752 21.5667C13.8278 20.3839 14.5902 18.5908 15.9112 17.9354L15.8886 18.0258C15.2394 16.9334 14.5676 14.9972 16.0546 14.2363C18.4627 13.2042 19.9271 15.9314 17.67 17.3101C17.2851 17.5738 16.8774 17.7998 16.4849 18.0409L16.5151 17.9279C16.9529 18.5833 17.9116 20.1051 18.3872 20.7003C18.6136 20.9941 18.8401 21.2879 19.0967 21.5516H18.9986C19.9799 20.6551 19.8818 19.073 19.1345 18.0559C19.0967 18.0032 19.0892 18.0183 19.1496 17.9731L19.6478 17.5813L19.7006 17.5436C20.5083 18.847 20.531 20.7907 19.2175 21.7776V21.7249C20.4026 22.8022 21.2103 21.8981 21.0141 20.5345C21.0216 20.5345 21.5802 20.8133 21.5878 20.8208V20.8133ZM21.5878 20.8133C21.5878 20.8133 20.9839 20.5496 21.0216 20.5421C21.2481 21.9433 20.3875 22.8474 19.1647 21.7701C19.1194 21.7324 19.1345 21.7475 19.1647 21.7173C19.7535 21.2502 20.1007 20.527 20.1535 19.7887C20.2139 19.0429 19.995 18.297 19.6251 17.6566L19.7082 17.6717L19.21 18.0635L19.2251 17.9806C20.0101 19.0429 20.1233 20.7003 19.0892 21.6495C19.0288 21.6947 19.0514 21.7173 18.9911 21.6495C18.0701 20.7153 17.1039 19.1031 16.3566 18.0107C16.3188 17.9354 16.2811 17.958 16.3868 17.8977C17.4436 17.28 19.1194 16.406 18.4551 14.9445C18.0399 14.1309 16.8774 14.0405 16.115 14.387C14.711 15.1253 15.413 16.9334 16.032 18.0258C14.7336 18.6511 13.9486 20.3311 15.0507 21.4989C16.0622 22.4406 17.821 22.546 18.9986 21.8454C20.0554 22.7495 21.5576 22.305 21.5878 20.8208V20.8133Z" fill="#131313"/>
<path d="M18.8487 21.7625C17.6787 20.7982 16.8106 19.5249 16.018 18.2517L16.1312 18.2743C15.1197 18.9449 14.7347 20.4215 15.5047 21.4008C16.2822 22.32 17.8523 22.4028 18.8487 21.7625ZM18.8487 21.7625C17.8599 22.5008 16.2369 22.448 15.399 21.4913C14.5007 20.429 14.9612 18.764 16.1086 18.1011C16.8785 19.4119 17.7466 20.7077 18.8487 21.77V21.7625Z" fill="#131313"/>
<path d="M16.3334 17.7696C16.9826 17.3553 17.7601 16.956 18.0545 16.2102C18.2885 15.5472 18.1828 14.5075 17.36 14.3493C15.2464 14.0254 15.6163 16.5492 16.3334 17.7621V17.7696ZM16.3334 17.7696C15.4049 16.4814 15.0803 13.8672 17.4053 14.1685C18.3338 14.3569 18.4999 15.5171 18.1904 16.2629C17.828 17.0539 17.0203 17.4005 16.3334 17.7621V17.7696Z" fill="#131313"/>
<path d="M22.4877 22.8701C21.0761 25.8911 18.6983 27.8122 15.2108 27.8122C9.57202 27.8122 6.98285 22.9379 6.98285 17.4157C6.98285 11.8934 10.1759 7.49373 14.9617 7.49373C18.3359 7.49373 20.2457 9.97986 21.1289 12.8653L22.7896 12.4133C21.1289 9.07582 18.6152 7.19238 14.9617 7.19238C9.52673 7.19238 5.375 11.5619 5.375 17.491C5.375 23.42 8.77187 28.2868 14.9391 28.2868C18.8341 28.2868 21.378 26.1849 22.85 22.8701H22.5028H22.4877Z" fill="#131313"/>
</g>
<defs>
<clipPath id="clip0_353_1065">
<rect width="40" height="40" fill="white"/>
</clipPath>
</defs>
</svg>
