<svg width="16" height="16" viewBox="0 0 16 16" fill="none" xmlns="http://www.w3.org/2000/svg">
<g clip-path="url(#clip0_904_1896)">
<path d="M13.4978 0.795003L13.6468 0.646003C13.759 0.533919 13.8921 0.445023 14.0386 0.384389C14.1851 0.323755 14.3421 0.292571 14.5007 0.292618C14.6592 0.292664 14.8162 0.32394 14.9627 0.38466C15.1092 0.44538 15.2422 0.534354 15.3543 0.646503C15.4664 0.758652 15.5553 0.891779 15.6159 1.03828C15.6766 1.18479 15.7077 1.3418 15.7077 1.50036C15.7077 1.65891 15.6764 1.81591 15.6157 1.96238C15.5549 2.10884 15.466 2.24192 15.3538 2.354L15.2048 2.502C15.4597 2.78786 15.5956 3.1604 15.5846 3.54323C15.5736 3.92607 15.4167 4.29021 15.1458 4.561L4.85382 14.854C4.78948 14.918 4.70893 14.9633 4.62082 14.985L0.620816 15.985C0.537108 16.0058 0.449432 16.0047 0.366309 15.9816C0.283186 15.9585 0.207444 15.9144 0.146447 15.8534C0.0854489 15.7924 0.0412701 15.7166 0.0182047 15.6335C-0.00486067 15.5504 -0.00602807 15.4627 0.014816 15.379L1.01482 11.379C1.0367 11.2912 1.08197 11.2111 1.14582 11.147L10.7878 1.505C10.6914 1.43713 10.5741 1.40553 10.4566 1.41578C10.3391 1.42602 10.229 1.47746 10.1458 1.561L6.85382 4.854C6.80733 4.90049 6.75214 4.93737 6.6914 4.96253C6.63066 4.98769 6.56556 5.00063 6.49982 5.00063C6.43407 5.00063 6.36897 4.98769 6.30823 4.96253C6.24749 4.93737 6.1923 4.90049 6.14582 4.854C6.09933 4.80752 6.06245 4.75233 6.03729 4.69159C6.01213 4.63085 5.99918 4.56575 5.99918 4.5C5.99918 4.43426 6.01213 4.36916 6.03729 4.30842C6.06245 4.24768 6.09933 4.19249 6.14582 4.146L9.43982 0.854003C9.71079 0.583018 10.0752 0.426023 10.4583 0.415238C10.8414 0.404452 11.214 0.540694 11.4998 0.796003C11.7746 0.550441 12.1301 0.414615 12.4986 0.41443C12.8671 0.414246 13.2228 0.549717 13.4978 0.795003ZM12.8538 1.561C12.7601 1.46727 12.6329 1.41461 12.5003 1.41461C12.3677 1.41461 12.2406 1.46727 12.1468 1.561L1.94982 11.756L1.18582 14.813L4.24282 14.049L14.4398 3.854C14.4864 3.80756 14.5233 3.75238 14.5485 3.69164C14.5737 3.63089 14.5867 3.56577 14.5867 3.5C14.5867 3.43424 14.5737 3.36911 14.5485 3.30837C14.5233 3.24762 14.4864 3.19245 14.4398 3.146L12.8538 1.561Z" fill="white"/>
</g>
<defs>
<clipPath id="clip0_904_1896">
<rect width="16" height="16" fill="white"/>
</clipPath>
</defs>
</svg>
